<svg width="20" height="20" viewBox="0 0 20 20" fill="none" xmlns="http://www.w3.org/2000/svg">
<circle cx="10" cy="10" r="10" fill="#FF0000"/>
<path d="M11.1641 12.5078H9.28906L9.02344 4.625H11.4297L11.1641 12.5078ZM10.2266 13.7422C10.6068 13.7422 10.9115 13.8542 11.1406 14.0781C11.375 14.3021 11.4922 14.5885 11.4922 14.9375C11.4922 15.2812 11.375 15.5651 11.1406 15.7891C10.9115 16.013 10.6068 16.125 10.2266 16.125C9.85156 16.125 9.54688 16.013 9.3125 15.7891C9.08333 15.5651 8.96875 15.2812 8.96875 14.9375C8.96875 14.5938 9.08333 14.3099 9.3125 14.0859C9.54688 13.8568 9.85156 13.7422 10.2266 13.7422Z" fill="white"/>
</svg>
